<svg xmlns="http://www.w3.org/2000/svg" xmlns:xlink="http://www.w3.org/1999/xlink" preserveAspectRatio="xMidYMid" width="90" height="90" viewBox="0 0 90 90">
  <defs>
    <style>
      .cls-1 {
        fill: #e84c3c;
        fill-rule: evenodd;
      }
    </style>
  </defs>
  <path d="M86.000,90.000 L59.000,90.000 C56.791,90.000 55.000,88.209 55.000,86.000 L55.000,59.000 C55.000,56.791 56.791,55.000 59.000,55.000 L86.000,55.000 C88.209,55.000 90.000,56.791 90.000,59.000 L90.000,86.000 C90.000,88.209 88.209,90.000 86.000,90.000 ZM86.000,35.000 L59.000,35.000 C56.791,35.000 55.000,33.209 55.000,31.000 L55.000,4.000 C55.000,1.791 56.791,-0.000 59.000,-0.000 L86.000,-0.000 C88.209,-0.000 90.000,1.791 90.000,4.000 L90.000,31.000 C90.000,33.209 88.209,35.000 86.000,35.000 ZM31.000,90.000 L4.000,90.000 C1.791,90.000 -0.000,88.209 -0.000,86.000 L-0.000,59.000 C-0.000,56.791 1.791,55.000 4.000,55.000 L31.000,55.000 C33.209,55.000 35.000,56.791 35.000,59.000 L35.000,86.000 C35.000,88.209 33.209,90.000 31.000,90.000 ZM31.000,35.000 L4.000,35.000 C1.791,35.000 -0.000,33.209 -0.000,31.000 L-0.000,4.000 C-0.000,1.791 1.791,-0.000 4.000,-0.000 L31.000,-0.000 C33.209,-0.000 35.000,1.791 35.000,4.000 L35.000,31.000 C35.000,33.209 33.209,35.000 31.000,35.000 Z" class="cls-1"/>
</svg>
