<svg xmlns="http://www.w3.org/2000/svg" xmlns:xlink="http://www.w3.org/1999/xlink" preserveAspectRatio="xMidYMid" viewBox="0 0 80 80">
  <defs>
    <style>
      .cls-1 {
        fill: #e84c3c;
        fill-rule: evenodd;
      }
    </style>
  </defs>
  <path d="M76.000,80.000 L49.000,80.000 C46.791,80.000 45.000,78.209 45.000,76.000 L45.000,49.000 C45.000,46.791 46.791,45.000 49.000,45.000 L76.000,45.000 C78.209,45.000 80.000,46.791 80.000,49.000 L80.000,76.000 C80.000,78.209 78.209,80.000 76.000,80.000 ZM76.000,35.000 L49.000,35.000 C46.791,35.000 45.000,33.209 45.000,31.000 L45.000,4.000 C45.000,1.791 46.791,-0.000 49.000,-0.000 L76.000,-0.000 C78.209,-0.000 80.000,1.791 80.000,4.000 L80.000,31.000 C80.000,33.209 78.209,35.000 76.000,35.000 ZM31.000,80.000 L4.000,80.000 C1.791,80.000 -0.000,78.209 -0.000,76.000 L-0.000,49.000 C-0.000,46.791 1.791,45.000 4.000,45.000 L31.000,45.000 C33.209,45.000 35.000,46.791 35.000,49.000 L35.000,76.000 C35.000,78.209 33.209,80.000 31.000,80.000 ZM31.000,35.000 L4.000,35.000 C1.791,35.000 -0.000,33.209 -0.000,31.000 L-0.000,4.000 C-0.000,1.791 1.791,-0.000 4.000,-0.000 L31.000,-0.000 C33.209,-0.000 35.000,1.791 35.000,4.000 L35.000,31.000 C35.000,33.209 33.209,35.000 31.000,35.000 Z" class="cls-1"/>
</svg>
